<svg xmlns="http://www.w3.org/2000/svg" viewBox="0 0 48 48" id="plant"><symbol id="New_Symbol_14" viewBox="-6.5 -6.5 13 13"><path fill="#ffd4c3" stroke="#504b46" stroke-linecap="round" stroke-linejoin="round" stroke-miterlimit="10" d="M0-6c2.2 0 4.1 1.5 4.7 3.5C6.3-2.5 6.4 0 5 0v1c0 2.8-2.2 5-5 5s-5-2.2-5-5V0c-1.4 0-1.3-2.5.2-2.5C-4.1-4.5-2.2-6 0-6z"></path><circle cx="-1.6" cy="-.1" r=".1" fill="#ffc258"></circle><path fill="#4f4b45" d="M-1.6.5c-.3 0-.6-.3-.6-.6s.2-.7.6-.7c.3 0 .6.3.6.7s-.3.6-.6.6z"></path><circle cx="1.6" cy="-.1" r=".1" fill="#ffc258"></circle><path fill="#4f4b45" d="M1.6.5C1.3.5 1 .2 1-.1s.3-.6.6-.6.6.3.6.6-.2.6-.6.6z"></path><circle cx="-3" cy="-1.5" r=".5" fill="#fabfa5"></circle><circle cx="3" cy="-1.5" r=".5" fill="#fabfa5"></circle><path fill="none" stroke="#504b46" stroke-linecap="round" stroke-linejoin="round" stroke-miterlimit="10" d="M-1.2-3c.8-.5 1.7-.5 2.5 0"></path></symbol><g id="Icons"><g id="XMLID_1978_"><path id="XMLID_2687_" fill="#6dd627" d="M45.4 9.6c-1.5-.8-4.2-1.9-7.2-1.6-3.9.3-6.3 4.2-4.9 7.1-.6.5-1.1 1.1-1.7 1.8-3.9 4.9-4.2 10.7-4.2 10.7l1.9 3.7s.4-7.1 3.3-12.1c.6-1 1.2-1.9 1.8-2.7 2.7 2.6 6.2.1 8-2 1.5-1.7 2.5-2.7 3.2-3.4.5-.4.4-1.2-.2-1.5z"></path><g id="XMLID_1166_"><path id="XMLID_1168_" fill="#9ceb60" d="M38.2 10.1c2.8-.2 5.4.7 7 1.5.2-.2.3-.3.5-.4.5-.4.4-1.2-.2-1.5-1.5-.8-4.2-1.9-7.2-1.6-3.6.3-5.9 3.5-5.2 6.3.4-2.2 2.4-4.1 5.1-4.3z"></path><path id="XMLID_1167_" fill="#9ceb60" d="M31.7 18.9c.5-.7 1.1-1.3 1.7-1.8-.3-.5-.4-1.1-.4-1.7-.4.4-.8.8-1.2 1.4-3.9 4.9-4.2 10.7-4.2 10.7l.2.4c.3-1.9 1.3-5.7 3.9-9z"></path></g><path id="XMLID_1164_" fill="none" stroke="#45413c" stroke-linecap="round" stroke-linejoin="round" stroke-miterlimit="10" d="M45.4 9.6c-1.5-.8-4.2-1.9-7.2-1.6-3.9.3-6.3 4.2-4.9 7.1-.6.5-1.1 1.1-1.7 1.8-3.9 4.9-4.2 10.7-4.2 10.7l1.9 3.7s.4-7.1 3.3-12.1c.6-1 1.2-1.9 1.8-2.7 2.7 2.6 6.2.1 8-2 1.5-1.7 2.5-2.7 3.2-3.4.5-.4.4-1.2-.2-1.5z"></path><ellipse id="XMLID_1162_" cx="28.5" cy="44.9" fill="#45413c" opacity=".15" rx="10.7" ry="1.5"></ellipse><path id="XMLID_1161_" fill="#6dd627" d="M27.5 22.5c-1.7-4.3-4.6-7.7-7.3-10.1.3-2 .6-7.4-5-9.7C10 .5 4.9 2.2 2.7 3.3c-.6.3-.8 1-.3 1.5 1 1.1 2.8 3.2 4.4 6 2.9 5.1 9 8.1 12.9 2.9 2 2.3 3.9 5.4 5.1 9.7 3.3 12.1 1.6 17.2.8 19.2-.2.6 0 1.3.5 1.6.5.3 1.3.6 2.3.7 2.2.1 2.3-1.4 2.3-1.4s1.1-10.2-3.2-21z"></path><g id="XMLID_1158_"><path id="XMLID_1160_" fill="#9ceb60" d="M20.2 14.4c.5.7 1.1 1.4 1.6 2.2 2.2 2.2 4.3 5.1 5.7 8.5 2.6 6.4 3.3 12.6 3.4 16.6.1-3.3-.1-11.1-3.4-19.3-1.7-4.3-4.5-7.6-7.2-10 0 .8 0 1.5-.1 2z"></path><path id="XMLID_1159_" fill="#9ceb60" d="M3.2 5.7c2.5-1 7.2-2.3 11.9-.4 3.6 1.5 4.8 4.2 5 6.6.3-2.3.2-7.2-5-9.3C10 .5 4.9 2.2 2.7 3.3c-.6.3-.8 1-.3 1.5.2.2.5.5.8.9z"></path></g><path id="XMLID_1157_" fill="none" stroke="#45413c" stroke-linecap="round" stroke-linejoin="round" stroke-miterlimit="10" d="M27.5 22.5c-1.7-4.3-4.6-7.7-7.3-10.1.3-2 .6-7.4-5-9.7C10 .5 4.9 2.2 2.7 3.3c-.6.3-.8 1-.3 1.5 1 1.1 2.8 3.2 4.4 6 2.9 5.1 9 8.1 12.9 2.9 2 2.3 3.9 5.4 5.1 9.7 3.3 12.1 1.6 17.2.8 19.2-.2.6 0 1.3.5 1.6.5.3 1.3.6 2.3.7 2.2.1 2.3-1.4 2.3-1.4s1.1-10.2-3.2-21z"></path><path id="XMLID_1156_" fill="#6dd627" stroke="#45413c" stroke-linecap="round" stroke-linejoin="round" stroke-miterlimit="10" d="M34.2 14.7s.9-4.3 6.5-4.2"></path><path id="XMLID_1154_" fill="#6dd627" stroke="#45413c" stroke-linecap="round" stroke-linejoin="round" stroke-miterlimit="10" d="M18.4 11.4c-.3-5-7-6.1-7-6.1"></path></g></g></svg>